<?xml version="1.0" standalone="no"?>
<!DOCTYPE svg PUBLIC "-//W3C//DTD SVG 20010904//EN"
 "http://www.w3.org/TR/2001/REC-SVG-20010904/DTD/svg10.dtd">
<svg version="1.0" xmlns="http://www.w3.org/2000/svg"
 width="1080.000000pt" height="1080.000000pt" viewBox="0 0 1080.000000 1080.000000"
 preserveAspectRatio="xMidYMid meet">

<g transform="translate(0.000000,1080.000000) scale(0.100000,-0.100000)"
fill="#000000" stroke="none">
<path d="M5376 8529 c-51 -12 -99 -43 -131 -82 l-25 -32 0 37 c0 62 -6 68 -66
68 l-55 0 6 -87 c6 -100 25 -504 25 -545 0 -27 1 -28 60 -28 33 0 60 3 60 8 0
4 -5 86 -10 181 -11 218 -4 259 54 318 34 34 53 44 104 54 l62 13 0 53 c0 59
-3 61 -84 42z"/>
<path d="M6712 8293 c-321 -576 -326 -584 -311 -594 61 -39 363 -201 398 -214
277 -97 541 58 591 348 27 150 -44 312 -177 410 -44 32 -384 227 -396 227 -3
0 -50 -80 -105 -177z m358 -84 c78 -45 153 -122 183 -187 64 -144 -15 -346
-165 -421 -50 -25 -73 -31 -127 -31 -36 0 -84 5 -106 11 -45 12 -305 150 -305
162 0 7 275 505 307 555 l14 23 67 -37 c37 -20 96 -54 132 -75z"/>
<path d="M4533 8421 c-153 -52 -229 -166 -221 -329 6 -127 66 -231 165 -285
137 -74 341 -40 448 74 25 26 45 53 45 58 0 6 -15 22 -34 36 l-34 26 -49 -48
c-82 -82 -213 -106 -309 -56 -39 20 -110 100 -99 112 4 3 122 35 263 71 294
74 275 60 225 173 -68 151 -239 224 -400 168z m224 -117 c44 -36 87 -95 76
-104 -5 -4 -99 -30 -210 -57 l-203 -51 0 40 c0 78 50 154 125 190 30 14 57 18
107 16 57 -3 72 -8 105 -34z"/>
<path d="M3855 8157 c-120 -40 -225 -141 -225 -217 0 -31 -14 -24 -39 20 l-22
40 -50 -26 -50 -25 23 -42 c13 -23 113 -202 222 -399 l199 -356 48 26 c27 15
49 30 49 34 0 4 -36 72 -79 150 -44 78 -79 144 -77 145 1 1 20 -2 41 -8 120
-33 280 46 351 173 26 48 29 62 29 143 0 77 -4 98 -27 147 -34 73 -99 143
-163 175 -60 31 -168 40 -230 20z m160 -116 c22 -10 56 -36 76 -58 134 -148
60 -375 -126 -391 -81 -7 -118 4 -169 49 -141 124 -121 321 38 395 61 29 126
30 181 5z"/>
<path d="M5869 7951 c-18 -14 -24 -29 -24 -61 0 -49 29 -80 75 -80 42 0 59 9
75 41 20 38 19 62 -6 93 -25 32 -84 36 -120 7z"/>
<path d="M3203 7670 c-59 -12 -119 -45 -173 -96 -152 -142 -154 -353 -3 -495
75 -71 129 -93 228 -93 100 0 172 30 245 104 75 74 105 145 105 245 0 104 -31
171 -115 248 -82 76 -187 108 -287 87z m148 -131 c47 -23 95 -71 119 -118 48
-96 34 -178 -45 -257 -101 -101 -228 -94 -332 18 -50 55 -67 103 -61 177 12
156 179 251 319 180z"/>
<path d="M7542 7632 c-16 -53 -15 -62 6 -62 30 0 118 -47 162 -86 56 -51 84
-106 77 -156 -5 -40 -49 -108 -70 -108 -6 0 -50 40 -97 88 -130 135 -208 171
-295 138 -54 -21 -112 -83 -121 -130 -14 -77 17 -155 93 -228 56 -54 122 -87
176 -88 l37 0 -32 -29 -33 -30 40 -40 40 -40 166 162 c104 101 175 179 189
207 51 99 20 210 -85 313 -56 54 -153 110 -211 122 -29 5 -31 3 -42 -33z m-45
-321 c54 -43 153 -145 153 -158 0 -5 -15 -24 -33 -41 -74 -71 -205 -42 -274
62 -43 63 -44 107 -4 147 44 44 95 41 158 -10z"/>
<path d="M2406 7251 l-34 -48 370 -262 c203 -144 376 -265 383 -267 8 -3 26
13 44 40 l31 45 -32 24 c-18 13 -189 135 -380 270 l-347 246 -35 -48z"/>
<path d="M8073 7157 c-18 -12 -33 -25 -33 -30 0 -4 11 -25 25 -47 14 -22 25
-41 25 -44 0 -2 -74 -52 -165 -111 -90 -58 -177 -122 -194 -140 -71 -81 -64
-174 21 -270 27 -32 86 -72 92 -63 31 43 47 70 45 72 -2 1 -18 12 -35 24 -18
12 -39 40 -48 63 -28 70 -11 91 179 213 90 58 167 106 172 106 4 0 27 -31 51
-70 24 -38 47 -72 52 -75 8 -5 41 13 79 42 2 1 -12 26 -31 55 -19 29 -42 65
-52 80 l-18 27 59 37 c32 20 59 38 61 39 6 5 -53 95 -63 95 -6 0 -34 -16 -62
-35 -29 -19 -54 -35 -57 -35 -2 0 -17 20 -33 45 -15 25 -30 45 -33 44 -3 0
-20 -10 -37 -22z"/>
<path d="M2503 6752 c-108 -39 -192 -145 -214 -271 -19 -107 25 -222 114 -295
139 -114 319 -114 446 0 98 88 156 263 121 368 -13 39 -17 41 -72 26 -36 -10
-36 -11 -26 -48 33 -119 -58 -279 -177 -312 -39 -11 -109 -9 -121 3 -3 2 47
114 110 248 l115 244 -50 23 c-69 33 -177 39 -246 14z m162 -101 c5 -9 -85
-212 -151 -344 l-26 -49 -39 38 c-46 45 -73 119 -63 174 14 77 67 148 129 176
35 15 141 19 150 5z"/>
<path d="M8353 6588 c-37 -42 -37 -47 10 -89 93 -81 134 -220 87 -296 -16 -27
-97 -82 -104 -71 -2 2 -22 53 -46 113 -23 61 -56 132 -73 158 -55 89 -151 120
-243 78 -49 -22 -80 -60 -95 -115 -31 -114 48 -289 151 -333 l35 -15 -41 -17
-41 -16 19 -52 20 -52 52 20 c28 12 120 48 203 81 180 70 238 106 270 167 59
113 1 309 -126 424 -23 20 -45 37 -49 37 -5 0 -18 -10 -29 -22z m-208 -230
c24 -24 47 -65 79 -146 l45 -113 -27 -11 c-15 -5 -46 -13 -69 -15 -144 -18
-262 227 -145 300 42 26 78 21 117 -15z"/>
<path d="M2131 6108 c-7 -28 -8 -55 -4 -59 5 -4 96 -69 203 -144 107 -76 210
-149 229 -163 l35 -26 -30 -8 c-16 -4 -144 -31 -285 -59 l-256 -51 -10 -57
c-6 -31 -10 -57 -8 -59 1 -1 158 31 350 71 252 53 349 78 356 89 5 9 10 37 11
63 l3 47 -285 204 c-157 112 -288 203 -292 204 -3 0 -11 -23 -17 -52z"/>
<path d="M8122 5529 l3 -64 105 -46 105 -47 3 -239 2 -239 -110 -48 -110 -49
0 -63 c0 -35 1 -64 3 -64 1 0 198 89 437 198 l435 197 3 65 2 65 -431 195
c-237 107 -435 197 -440 199 -6 2 -9 -22 -7 -60z m540 -301 c114 -50 208 -94
208 -97 0 -5 -367 -169 -421 -189 -5 -2 -9 79 -9 187 0 105 3 191 7 191 3 0
100 -41 215 -92z"/>
<path d="M2230 5361 c-88 -27 -163 -89 -201 -167 -35 -71 -39 -197 -9 -276 27
-73 92 -141 168 -176 72 -33 188 -37 269 -9 70 24 145 93 180 165 26 52 28 67
28 167 0 121 -18 181 -72 238 -34 34 -43 34 -78 -3 l-29 -30 21 -22 c32 -36
54 -85 60 -138 14 -118 -30 -211 -123 -256 -30 -15 -57 -25 -59 -22 -3 3 -7
88 -10 189 -3 101 -8 221 -11 267 l-6 82 -51 -1 c-29 0 -63 -4 -77 -8z m54
-173 c3 -40 7 -138 8 -216 l3 -144 -35 6 c-19 3 -53 18 -75 34 -138 97 -112
318 45 381 45 18 48 14 54 -61z"/>
<path d="M8088 4615 c-8 -30 -13 -57 -9 -59 3 -2 88 -27 189 -56 122 -35 196
-63 221 -81 115 -83 94 -291 -35 -345 -52 -22 -78 -18 -292 45 l-201 58 -16
-54 c-9 -30 -15 -56 -13 -58 2 -2 91 -29 198 -60 244 -72 303 -78 380 -38 98
50 150 149 150 283 0 46 -6 78 -20 105 -11 21 -18 41 -16 43 3 2 21 -1 40 -8
20 -6 40 -9 45 -6 8 6 35 96 29 101 -2 1 -140 41 -308 90 -168 48 -310 90
-316 92 -6 2 -17 -21 -26 -52z"/>
<path d="M2248 4581 c-214 -70 -335 -265 -299 -483 11 -68 125 -434 140 -450
5 -6 442 135 820 263 11 4 -1 49 -54 209 -37 113 -81 229 -97 258 -45 79 -118
148 -195 185 -60 28 -80 32 -163 34 -71 2 -109 -2 -152 -16z m234 -111 c58
-17 128 -70 169 -130 35 -51 141 -333 129 -343 -3 -2 -139 -48 -302 -101 -164
-53 -304 -99 -312 -102 -11 -4 -26 29 -62 138 -41 122 -48 155 -48 223 0 94
24 158 82 218 85 88 229 129 344 97z"/>
<path d="M7882 3909 c-49 -25 -98 -78 -132 -146 -20 -39 -25 -63 -25 -125 l0
-77 -34 20 c-18 11 -35 19 -36 17 -1 -2 -14 -23 -28 -48 l-26 -45 190 -113
c242 -144 278 -157 370 -132 110 31 229 220 229 365 l0 55 -34 0 c-19 0 -41 3
-50 6 -13 5 -16 -3 -16 -50 0 -102 -59 -214 -133 -253 -36 -18 -105 -13 -142
11 l-26 17 23 37 c142 230 163 311 103 403 -28 44 -96 79 -151 79 -21 0 -58
-10 -82 -21z m101 -98 c65 -25 84 -87 49 -159 -26 -54 -103 -181 -113 -188 -5
-3 -26 5 -48 16 -92 52 -96 196 -8 289 47 48 76 59 120 42z"/>
<path d="M2977 3451 c-89 -36 -157 -97 -205 -186 -23 -43 -27 -62 -27 -135 0
-103 21 -155 90 -229 53 -57 113 -89 181 -99 l46 -7 -134 -120 -135 -120 35
-43 c19 -23 39 -41 43 -40 15 5 689 608 689 616 -1 4 -16 24 -35 45 l-33 38
-39 -34 -38 -35 -1 57 c-1 111 -81 229 -189 280 -70 33 -182 39 -248 12z m218
-118 c112 -56 161 -194 107 -299 -26 -51 -101 -119 -149 -135 -57 -18 -145 -7
-193 25 -50 33 -96 102 -104 159 -21 142 125 289 269 270 22 -3 54 -12 70 -20z"/>
<path d="M7228 3406 c-26 -7 -55 -19 -65 -26 -47 -36 -77 -68 -96 -105 -38
-73 -29 -121 95 -564 62 -223 118 -406 123 -407 6 -2 27 11 47 29 l36 32 -79
274 c-43 151 -77 276 -75 278 2 2 119 -55 260 -127 l255 -131 45 37 c25 21 43
40 41 43 -2 3 -147 78 -323 165 l-319 159 -11 44 c-22 80 -16 121 21 158 21
21 52 38 80 46 50 12 53 18 41 78 -7 34 -9 35 -76 17z"/>
<path d="M7457 3348 c-20 -23 -33 -46 -31 -50 7 -11 696 -609 698 -606 0 2 18
22 39 44 l38 41 -338 293 c-186 161 -345 300 -354 307 -15 12 -21 9 -52 -29z"/>
<path d="M3633 2942 c-30 -3 -33 -6 -33 -37 0 -59 6 -65 69 -65 134 0 261
-119 261 -246 0 -29 -18 -94 -25 -94 -2 0 -103 65 -224 145 -121 80 -224 145
-230 145 -5 0 -25 -30 -43 -67 -86 -175 -20 -363 157 -448 49 -24 74 -29 136
-29 68 -1 83 3 144 34 159 81 234 265 174 425 -27 72 -112 161 -191 199 -57
28 -137 43 -195 38z m57 -403 c167 -109 170 -112 153 -131 -23 -25 -78 -53
-122 -62 -102 -19 -223 70 -246 182 -9 44 13 135 31 128 7 -3 90 -55 184 -117z"/>
<path d="M6770 2764 c-125 -33 -245 -116 -283 -196 -23 -48 -22 -110 3 -159
44 -86 124 -99 300 -49 58 17 120 30 137 30 45 0 73 -30 73 -77 0 -70 -118
-147 -247 -160 l-53 -6 0 -48 0 -49 43 0 c144 0 332 118 365 228 17 56 15 71
-14 131 -21 42 -36 57 -68 72 -58 26 -95 24 -237 -16 -133 -38 -169 -38 -194
-2 -23 33 -18 63 16 101 50 57 145 99 240 104 l79 5 0 53 0 54 -52 -1 c-29 0
-78 -7 -108 -15z"/>
<path d="M4164 2208 c-125 -200 -236 -377 -246 -394 l-18 -31 56 -12 c37 -9
59 -10 63 -3 3 5 94 149 201 320 193 307 195 310 202 274 4 -21 18 -176 33
-347 34 -409 25 -371 85 -385 27 -6 53 -9 58 -6 5 3 99 145 208 316 189 295
199 309 205 278 4 -18 19 -187 35 -375 l28 -341 60 -16 c33 -8 61 -14 62 -13
1 2 -72 843 -78 892 -3 25 -9 30 -53 42 -27 7 -57 13 -66 13 -9 0 -89 -116
-208 -305 -107 -168 -197 -305 -200 -305 -4 0 -15 87 -24 193 -10 105 -25 269
-34 364 l-16 171 -46 12 c-25 6 -53 13 -62 16 -13 4 -70 -79 -245 -358z"/>
<path d="M6091 2501 c-29 -10 -67 -32 -83 -49 l-31 -30 29 -36 c28 -35 29 -35
49 -17 31 29 61 41 99 41 65 0 81 -25 142 -229 30 -101 53 -189 51 -195 -3 -6
-43 -22 -89 -35 l-85 -23 10 -40 c5 -22 16 -42 22 -45 7 -2 50 7 94 21 l82 25
10 -27 c6 -15 16 -46 22 -69 12 -48 13 -48 78 -25 l47 17 -19 60 c-10 33 -19
65 -19 71 0 5 23 16 50 23 54 14 55 16 39 71 l-11 37 -50 -14 c-28 -8 -54 -11
-58 -7 -4 5 -32 88 -60 184 -71 236 -85 262 -163 295 -47 20 -90 19 -156 -4z"/>
<path d="M5530 2413 c-55 -20 -70 -101 -27 -141 50 -47 137 -10 137 58 0 55
-61 101 -110 83z"/>
</g>
</svg>
